<?xml version="1.0" encoding="iso-8859-1"?>
<!-- Generator: Adobe Illustrator 18.1.1, SVG Export Plug-In . SVG Version: 6.00 Build 0)  -->
<svg version="1.1" id="Capa_1" xmlns="http://www.w3.org/2000/svg" xmlns:xlink="http://www.w3.org/1999/xlink" x="0px" y="0px"
	 viewBox="0 0 425 425" style="enable-background:new 0 0 425 425;" xml:space="preserve">
<g>
	<path d="M354,179.647c0-3.671-2.976-6.647-6.647-6.647H81.647c-3.671,0-6.647,2.976-6.647,6.647v65.706
		c0,3.671,2.976,6.647,6.647,6.647h265.706c3.671,0,6.647-2.976,6.647-6.647V179.647z M127.038,195.752
		c10.386,0,18.834,8.451,18.834,18.837s-8.448,18.831-18.834,18.831c-10.386,0-18.834-8.445-18.834-18.831
		S116.652,195.752,127.038,195.752z M159.167,209.491c0-9.171-3.91-17.491-10.094-24.491h22.438c3.835,7,6.393,15.795,6.393,24.654
		c0,10.292-3.682,23.346-10.674,29.346h-25.278C152.135,233,159.167,221.795,159.167,209.491z M274.961,185
		c-6.184,7-10.095,15.321-10.095,24.491c0,12.304,7.033,23.509,17.216,29.509h-37.9c-4.834-6-7.041-19.541-7.041-29.346
		c0-8.531,1.763-17.654,4.279-24.654H274.961z M296.994,233.42c-10.386,0-18.834-8.445-18.834-18.831s8.448-18.837,18.834-18.837
		s18.834,8.451,18.834,18.837S307.38,233.42,296.994,233.42z M229.743,239h-46.895c4.951-6,8.349-18.047,8.349-29.346
		c0-8.294-1.723-9.654-4.66-24.654h40.743c-2.326,15-3.432,17.485-3.432,24.654C223.848,220.412,226.224,233,229.743,239z M339,239
		h-27.093c10.184-6,17.216-17.205,17.216-29.509c0-9.171-3.91-17.491-10.094-24.491H339V239z M87,185h18.004
		c-6.184,7-10.094,15.321-10.094,24.491c0,12.304,7.032,23.509,17.216,29.509H87V185z"/>
	<path d="M392.919,146H33.98c-3.671,0-6.98,6.163-6.98,9.837v148.486C27,318.988,39.26,325,53.921,325h319.056
		c14.661,0,27.022-6.012,27.022-20.676V155.837C400,152.163,396.589,146,392.919,146z M387,304.324
		c0,7.329-6.691,7.676-14.022,7.676H53.921C46.59,312,41,311.653,41,304.324V160h346V304.324z"/>
	<path d="M425,92.941C425,81.928,416.072,73,405.059,73H19.941C8.928,73,0,81.928,0,92.941v239.118C0,343.072,8.928,352,19.941,352
		h385.118c11.013,0,19.941-8.928,19.941-19.941V92.941z M338.073,86l-15.659,33H104.52L89.174,86H338.073z M412,335.3
		c0,3.668-2.123,3.7-5.787,3.7H20.686c-3.665,0-6.686-0.032-6.686-3.7V98.266C14,94.599,17.022,86,20.686,86h53.72
		c0.083,7,0.076,3.255,0.183,3.465l19.941,39.501c1.133,2.227,3.421,4.033,5.92,4.033h225.998c2.479,0,4.751-0.376,5.897-2.576
		l19.941-40.621c0.249-0.48,0.306,3.197,0.43-3.803h53.496c3.664,0,5.787,8.599,5.787,12.266V335.3z"/>
	<path d="M197.802,272.926c-7.332,0-13.294,5.966-13.294,13.294s5.962,13.294,13.294,13.294s13.294-5.966,13.294-13.294
		S205.134,272.926,197.802,272.926z M197.802,292.867c-3.665,0-6.647-2.979-6.647-6.647s2.982-6.647,6.647-6.647
		c3.664,0,6.647,2.979,6.647,6.647S201.467,292.867,197.802,292.867z"/>
	<path d="M178.049,274.055c-1.415-1.174-3.505-0.98-4.683,0.422l-5.754,6.905l-5.754-6.905c-1.178-1.402-3.265-1.597-4.683-0.422
		c-1.408,1.175-1.6,3.272-0.425,4.68l6.535,7.841l-6.535,7.841c-1.174,1.409-0.983,3.505,0.425,4.68
		c0.623,0.519,1.376,0.772,2.126,0.772c0.955,0,1.898-0.409,2.558-1.194l5.754-6.905l5.754,6.905
		c0.659,0.786,1.603,1.194,2.558,1.194c0.75,0,1.503-0.253,2.126-0.772c1.408-1.175,1.6-3.272,0.425-4.68l-6.535-7.841l6.535-7.841
		C179.649,277.327,179.458,275.23,178.049,274.055z"/>
	<path d="M257.625,272.926c-7.332,0-13.294,5.966-13.294,13.294s5.962,13.294,13.294,13.294c7.332,0,13.294-5.966,13.294-13.294
		S264.957,272.926,257.625,272.926z M257.625,292.867c-3.665,0-6.647-2.979-6.647-6.647s2.982-6.647,6.647-6.647
		c3.664,0,6.647,2.979,6.647,6.647S261.29,292.867,257.625,292.867z"/>
	<path d="M237.872,274.055c-1.418-1.174-3.505-0.98-4.683,0.422l-5.754,6.905l-5.754-6.905c-1.178-1.402-3.268-1.597-4.683-0.422
		c-1.408,1.175-1.6,3.272-0.425,4.68l6.535,7.841l-6.535,7.841c-1.174,1.409-0.983,3.505,0.425,4.68
		c0.623,0.519,1.376,0.772,2.126,0.772c0.955,0,1.898-0.409,2.558-1.194l5.754-6.905l5.754,6.905
		c0.659,0.786,1.603,1.194,2.558,1.194c0.75,0,1.503-0.253,2.126-0.772c1.409-1.175,1.6-3.272,0.425-4.68l-6.535-7.841l6.535-7.841
		C239.472,277.327,239.281,275.23,237.872,274.055z"/>
</g>
<g>
</g>
<g>
</g>
<g>
</g>
<g>
</g>
<g>
</g>
<g>
</g>
<g>
</g>
<g>
</g>
<g>
</g>
<g>
</g>
<g>
</g>
<g>
</g>
<g>
</g>
<g>
</g>
<g>
</g>
</svg>
