<?xml version="1.0" encoding="iso-8859-1"?>
<!-- Generator: Adobe Illustrator 18.1.1, SVG Export Plug-In . SVG Version: 6.00 Build 0)  -->
<svg version="1.1" id="Capa_1" xmlns="http://www.w3.org/2000/svg" xmlns:xlink="http://www.w3.org/1999/xlink" x="0px" y="0px"
	 viewBox="0 0 57.062 57.062" style="enable-background:new 0 0 57.062 57.062;" xml:space="preserve">
<g>
	<path style="fill:#010002;" d="M3.275,14.936V9.802c0-0.45,0.366-0.816,0.816-0.816h47.831c0.45,0,0.816,0.366,0.816,0.816v4.434
		c0,0.45-0.366,0.816-0.816,0.816c-0.451,0-0.818-0.366-0.818-0.816V10.62H4.907v4.316c0,0.45-0.366,0.816-0.816,0.816
		S3.275,15.386,3.275,14.936z M57.062,20.419v23.799c0,2.128-1.73,3.858-3.857,3.858H3.857C1.73,48.076,0,46.345,0,44.218V20.419
		c0-2.126,1.73-3.857,3.857-3.857h49.348C55.332,16.562,57.062,18.292,57.062,20.419z M54.946,20.419
		c0-0.96-0.781-1.741-1.741-1.741H3.857c-0.96,0-1.741,0.781-1.741,1.741v23.799c0,0.96,0.781,1.741,1.741,1.741h49.348
		c0.96,0,1.741-0.781,1.741-1.741V20.419z M9.831,23.277h38.783c0.345,0,0.624-0.339,0.624-0.758c0-0.42-0.279-0.759-0.624-0.759
		H9.831c-0.345,0-0.624,0.339-0.624,0.759C9.207,22.938,9.486,23.277,9.831,23.277z M17.891,34.192c0,3.799-3.092,6.89-6.891,6.89
		s-6.89-3.091-6.89-6.89c0-3.8,3.091-6.891,6.89-6.891S17.891,30.392,17.891,34.192z M16.898,34.192
		c0-3.253-2.646-5.897-5.898-5.897s-5.898,2.644-5.898,5.897c0,3.251,2.646,5.896,5.898,5.896S16.898,37.444,16.898,34.192z
		 M15.884,34.192c0,2.693-2.192,4.884-4.884,4.884s-4.884-2.192-4.884-4.884c0-2.694,2.192-4.884,4.884-4.884
		C13.693,29.308,15.884,31.499,15.884,34.192z M15.423,34.192c0-2.44-1.984-4.423-4.423-4.423s-4.422,1.984-4.422,4.423
		S8.561,38.614,11,38.614C13.44,38.614,15.423,36.63,15.423,34.192z M52.364,34.192c0,3.799-3.092,6.89-6.891,6.89
		s-6.89-3.091-6.89-6.89c0-3.8,3.091-6.891,6.89-6.891S52.364,30.392,52.364,34.192z M51.371,34.192
		c0-3.253-2.647-5.897-5.898-5.897s-5.897,2.644-5.897,5.897c0,3.251,2.645,5.896,5.897,5.896S51.371,37.444,51.371,34.192z
		 M50.357,34.192c0,2.693-2.192,4.884-4.884,4.884c-2.692,0-4.884-2.192-4.884-4.884c0-2.693,2.192-4.884,4.884-4.884
		C48.166,29.308,50.357,31.499,50.357,34.192z M49.895,34.192c0-2.439-1.983-4.423-4.423-4.423c-2.439,0-4.422,1.984-4.422,4.423
		s1.984,4.422,4.422,4.422C47.912,38.614,49.895,36.63,49.895,34.192z M23.165,40.214v1.014c0,0.42-0.343,0.762-0.763,0.762h-1.4
		c-0.42,0-0.763-0.342-0.763-0.762v-1.014c0-0.421,0.343-0.763,0.763-0.763h1.4C22.822,39.451,23.165,39.793,23.165,40.214z
		 M22.633,40.213c0-0.128-0.103-0.23-0.23-0.23h-1.4c-0.127,0-0.231,0.102-0.231,0.23v1.014c0,0.126,0.104,0.229,0.231,0.229h1.4
		c0.126,0,0.23-0.102,0.23-0.229V40.213z M27.077,40.214v1.014c0,0.42-0.343,0.762-0.763,0.762h-1.399
		c-0.421,0-0.763-0.342-0.763-0.762v-1.014c0-0.421,0.342-0.763,0.763-0.763h1.399C26.734,39.451,27.077,39.793,27.077,40.214z
		 M26.545,40.213c0-0.128-0.102-0.23-0.23-0.23h-1.399c-0.127,0-0.23,0.102-0.23,0.23v1.014c0,0.126,0.102,0.229,0.23,0.229h1.399
		c0.127,0,0.23-0.102,0.23-0.229V40.213z M37.058,27.536v10.187c0,0.276-0.226,0.502-0.502,0.502H20.019
		c-0.277,0-0.501-0.226-0.501-0.502V27.536c0-0.276,0.224-0.501,0.501-0.501h16.537C36.833,27.035,37.058,27.26,37.058,27.536z
		 M36.054,28.038H20.52v9.182h15.534C36.054,37.22,36.054,28.038,36.054,28.038z M11,34.191c-0.215,0-0.389,0.174-0.389,0.389
		s0.174,0.389,0.389,0.389s0.389-0.174,0.389-0.389S11.215,34.191,11,34.191z M11,32.931c-0.215,0-0.389,0.174-0.389,0.389
		s0.174,0.389,0.389,0.389s0.389-0.174,0.389-0.389S11.215,32.931,11,32.931z M11,31.671c-0.215,0-0.389,0.174-0.389,0.389
		c0,0.215,0.174,0.389,0.389,0.389s0.389-0.174,0.389-0.389C11.389,31.845,11.215,31.671,11,31.671z M11,30.411
		c-0.215,0-0.389,0.174-0.389,0.389s0.174,0.389,0.389,0.389s0.389-0.174,0.389-0.389S11.215,30.411,11,30.411z M11,36.677
		c-0.215,0-0.389,0.174-0.389,0.389s0.174,0.389,0.389,0.389s0.389-0.174,0.389-0.389C11.389,36.851,11.215,36.677,11,36.677z
		 M11,35.417c-0.215,0-0.389,0.174-0.389,0.389s0.174,0.389,0.389,0.389s0.389-0.174,0.389-0.389S11.215,35.417,11,35.417z
		 M8.446,34.191c-0.215,0-0.389,0.174-0.389,0.389s0.174,0.389,0.389,0.389s0.389-0.174,0.389-0.389S8.661,34.191,8.446,34.191z
		 M10.096,34.58c0-0.215-0.174-0.389-0.389-0.389s-0.389,0.174-0.389,0.389s0.174,0.389,0.389,0.389S10.096,34.795,10.096,34.58z
		 M9.225,33.226c0.215,0,0.389-0.174,0.389-0.389s-0.174-0.389-0.389-0.389s-0.389,0.174-0.389,0.389S9.01,33.226,9.225,33.226z
		 M10.115,34.117c0.215,0,0.389-0.174,0.389-0.389s-0.174-0.389-0.389-0.389s-0.389,0.174-0.389,0.389S9.9,34.117,10.115,34.117z
		 M11.908,35.01c-0.215,0-0.389,0.174-0.389,0.389s0.174,0.389,0.389,0.389s0.389-0.174,0.389-0.389S12.123,35.01,11.908,35.01z
		 M12.799,35.9c-0.215,0-0.389,0.174-0.389,0.389s0.174,0.389,0.389,0.389s0.389-0.174,0.389-0.389S13.014,35.9,12.799,35.9z
		 M10.173,35.066c-0.214,0-0.388,0.174-0.388,0.388s0.174,0.388,0.388,0.388c0.214,0,0.388-0.174,0.388-0.388
		C10.561,35.24,10.387,35.066,10.173,35.066z M9.281,35.956c-0.215,0-0.389,0.174-0.389,0.389s0.174,0.389,0.389,0.389
		S9.67,36.56,9.67,36.345S9.496,35.956,9.281,35.956z M12.857,33.168c0.214,0,0.388-0.174,0.388-0.388s-0.174-0.388-0.388-0.388
		s-0.388,0.174-0.388,0.388S12.643,33.168,12.857,33.168z M11.966,34.06c0.215,0,0.389-0.174,0.389-0.389s-0.174-0.389-0.389-0.389
		s-0.389,0.174-0.389,0.389S11.751,34.06,11.966,34.06z M12.705,34.58c0-0.215-0.174-0.389-0.389-0.389s-0.389,0.174-0.389,0.389
		s0.174,0.389,0.389,0.389C12.531,34.969,12.705,34.795,12.705,34.58z M13.575,34.191c-0.215,0-0.389,0.174-0.389,0.389
		s0.174,0.389,0.389,0.389s0.389-0.174,0.389-0.389S13.79,34.191,13.575,34.191z M45.461,34.318c-0.215,0-0.389,0.174-0.389,0.389
		s0.174,0.389,0.389,0.389s0.389-0.174,0.389-0.389S45.676,34.318,45.461,34.318z M45.461,33.058c-0.215,0-0.389,0.174-0.389,0.389
		s0.174,0.389,0.389,0.389s0.389-0.174,0.389-0.389S45.676,33.058,45.461,33.058z M45.461,31.798c-0.215,0-0.389,0.174-0.389,0.389
		c0,0.215,0.174,0.389,0.389,0.389s0.389-0.174,0.389-0.389C45.85,31.972,45.676,31.798,45.461,31.798z M45.461,30.539
		c-0.215,0-0.389,0.174-0.389,0.389s0.174,0.389,0.389,0.389s0.389-0.174,0.389-0.389S45.676,30.539,45.461,30.539z M45.461,36.804
		c-0.215,0-0.389,0.174-0.389,0.389s0.174,0.389,0.389,0.389s0.389-0.174,0.389-0.389S45.676,36.804,45.461,36.804z M45.461,35.544
		c-0.215,0-0.389,0.174-0.389,0.389s0.174,0.389,0.389,0.389s0.389-0.174,0.389-0.389S45.676,35.544,45.461,35.544z M42.907,34.318
		c-0.215,0-0.389,0.174-0.389,0.389s0.174,0.389,0.389,0.389s0.389-0.174,0.389-0.389S43.122,34.318,42.907,34.318z M44.557,34.707
		c0-0.215-0.174-0.389-0.389-0.389s-0.389,0.174-0.389,0.389s0.174,0.389,0.389,0.389S44.557,34.922,44.557,34.707z M43.686,33.353
		c0.215,0,0.389-0.174,0.389-0.389s-0.174-0.389-0.389-0.389s-0.389,0.174-0.389,0.389S43.471,33.353,43.686,33.353z M44.576,34.244
		c0.215,0,0.389-0.174,0.389-0.389s-0.174-0.389-0.389-0.389s-0.389,0.174-0.389,0.389S44.361,34.244,44.576,34.244z M46.369,35.137
		c-0.215,0-0.389,0.174-0.389,0.389s0.174,0.389,0.389,0.389s0.389-0.174,0.389-0.389S46.584,35.137,46.369,35.137z M47.26,36.027
		c-0.215,0-0.389,0.174-0.389,0.389s0.174,0.389,0.389,0.389s0.389-0.174,0.389-0.389S47.475,36.027,47.26,36.027z M44.634,35.193
		c-0.214,0-0.388,0.174-0.388,0.388s0.174,0.388,0.388,0.388s0.388-0.174,0.388-0.388S44.848,35.193,44.634,35.193z M43.742,36.083
		c-0.215,0-0.389,0.174-0.389,0.389s0.174,0.389,0.389,0.389s0.389-0.174,0.389-0.389S43.957,36.083,43.742,36.083z M47.318,33.295
		c0.214,0,0.388-0.174,0.388-0.388s-0.174-0.388-0.388-0.388s-0.388,0.174-0.388,0.388S47.104,33.295,47.318,33.295z M46.427,34.187
		c0.215,0,0.389-0.174,0.389-0.389s-0.174-0.389-0.389-0.389s-0.389,0.174-0.389,0.389S46.212,34.187,46.427,34.187z M47.166,34.707
		c0-0.215-0.174-0.389-0.389-0.389s-0.389,0.174-0.389,0.389s0.174,0.389,0.389,0.389S47.166,34.922,47.166,34.707z M48.036,34.318
		c-0.215,0-0.389,0.174-0.389,0.389s0.174,0.389,0.389,0.389s0.389-0.174,0.389-0.389S48.251,34.318,48.036,34.318z"/>
</g>
<g>
</g>
<g>
</g>
<g>
</g>
<g>
</g>
<g>
</g>
<g>
</g>
<g>
</g>
<g>
</g>
<g>
</g>
<g>
</g>
<g>
</g>
<g>
</g>
<g>
</g>
<g>
</g>
<g>
</g>
</svg>
